<svg width="102" height="24" viewBox="0 0 102 24" fill="none" xmlns="http://www.w3.org/2000/svg">
<path d="M9.52637 1.82227C9.52637 2.07747 9.43522 2.29167 9.25293 2.46484C9.07975 2.64714 8.86556 2.73828 8.61035 2.73828H3.1416C2.96842 2.7474 2.82259 2.78841 2.7041 2.86133C2.59473 2.92513 2.5127 3.0026 2.45801 3.09375C2.40332 3.17578 2.37598 3.26237 2.37598 3.35352C2.37598 3.44466 2.40332 3.53581 2.45801 3.62695C2.5127 3.70898 2.59473 3.78646 2.7041 3.85938C2.82259 3.92318 2.96842 3.95964 3.1416 3.96875H7.02441C7.66243 3.98698 8.18652 4.13737 8.59668 4.41992C9.01595 4.69336 9.31217 5.01237 9.48535 5.37695C9.66764 5.73242 9.75879 6.09701 9.75879 6.4707C9.75879 6.83529 9.66764 7.19987 9.48535 7.56445C9.30306 7.91992 9.00684 8.23893 8.59668 8.52148C8.18652 8.79492 7.66243 8.93164 7.02441 8.93164H6.94238C6.8877 8.94076 6.83301 8.94531 6.77832 8.94531H1.61035C1.35514 8.94531 1.13639 8.85872 0.954102 8.68555C0.780924 8.50326 0.694336 8.28451 0.694336 8.0293C0.694336 7.77409 0.785482 7.5599 0.967773 7.38672C1.14095 7.20443 1.35514 7.11328 1.61035 7.11328H7.10645C7.27962 7.1224 7.4209 7.09049 7.53027 7.01758C7.64876 6.94466 7.73535 6.86263 7.79004 6.77148C7.84473 6.67122 7.87207 6.57096 7.87207 6.4707C7.87207 6.4069 7.84473 6.32031 7.79004 6.21094C7.73535 6.09245 7.64876 5.99674 7.53027 5.92383C7.4209 5.85091 7.27962 5.8099 7.10645 5.80078H3.22363C2.58561 5.78255 2.05697 5.63672 1.6377 5.36328C1.22754 5.08984 0.931315 4.77995 0.749023 4.43359C0.575846 4.07812 0.489258 3.7181 0.489258 3.35352C0.489258 2.99805 0.580404 2.64714 0.762695 2.30078C0.944987 1.94531 1.24121 1.63086 1.65137 1.35742C2.06152 1.08398 2.58561 0.938151 3.22363 0.919922H3.30566C3.36035 0.910807 3.41504 0.90625 3.46973 0.90625H8.61035C8.86556 0.90625 9.07975 0.997396 9.25293 1.17969C9.43522 1.35286 9.52637 1.56706 9.52637 1.82227ZM11.0303 1.82227C11.0303 1.56706 11.1169 1.35286 11.29 1.17969C11.4723 0.997396 11.6911 0.90625 11.9463 0.90625H19.9033C20.1585 0.90625 20.3773 0.992839 20.5596 1.16602C20.7327 1.34831 20.8193 1.56706 20.8193 1.82227C20.8193 2.07747 20.7282 2.29622 20.5459 2.47852C20.3727 2.65169 20.1585 2.73828 19.9033 2.73828H16.8545V8.27539C16.7998 8.82227 16.499 9.11849 15.9521 9.16406C15.6969 9.16406 15.4736 9.08203 15.2822 8.91797C15.0999 8.74479 15.0088 8.5306 15.0088 8.27539V2.73828H11.9463C11.6911 2.73828 11.4769 2.64714 11.3037 2.46484C11.1214 2.29167 11.0303 2.07747 11.0303 1.82227ZM25.3311 6.85352C25.3311 6.59831 25.4176 6.38411 25.5908 6.21094C25.7731 6.02865 25.9919 5.9375 26.2471 5.9375H28.3389L27.9834 4.92578C27.8376 4.55208 27.6917 4.20117 27.5459 3.87305C27.4092 3.53581 27.2497 3.23047 27.0674 2.95703C26.9033 2.68359 26.7165 2.53776 26.5068 2.51953C26.2881 2.53776 26.0921 2.68359 25.9189 2.95703C25.7458 3.23047 25.5863 3.53581 25.4404 3.87305C25.3037 4.20117 25.1624 4.55208 25.0166 4.92578L23.7178 8.48047C23.6266 8.67188 23.5081 8.83138 23.3623 8.95898C23.2256 9.07747 23.016 9.13672 22.7334 9.13672C22.4691 9.13672 22.2503 9.04557 22.0771 8.86328C21.9131 8.68099 21.8402 8.46224 21.8584 8.20703C21.8675 8.08854 21.8949 7.97917 21.9404 7.87891L23.4443 3.99609C23.8636 2.97526 24.2829 2.15039 24.7021 1.52148C25.1123 0.901693 25.7139 0.58724 26.5068 0.578125C27.2907 0.58724 27.8877 0.901693 28.2979 1.52148C28.7171 2.13216 29.1364 2.95703 29.5557 3.99609L31.0596 7.87891C31.1051 7.97917 31.1325 8.08854 31.1416 8.20703C31.1598 8.46224 31.0824 8.68099 30.9092 8.86328C30.7451 9.04557 30.5309 9.13672 30.2666 9.13672C29.9658 9.13672 29.7425 9.07747 29.5967 8.95898C29.46 8.83138 29.346 8.67188 29.2549 8.48047L28.9951 7.76953H26.2471C25.9919 7.76953 25.7777 7.67839 25.6045 7.49609C25.4222 7.32292 25.3311 7.10872 25.3311 6.85352ZM34.3545 8.27539C34.2998 8.82227 33.999 9.11849 33.4521 9.16406C33.1969 9.16406 32.9736 9.08203 32.7822 8.91797C32.5999 8.74479 32.5088 8.5306 32.5088 8.27539V1.79492C32.5179 1.53971 32.6136 1.33008 32.7959 1.16602C32.9782 0.992839 33.1969 0.90625 33.4521 0.90625H34.1221H35.8037H39.1807C39.2354 0.90625 39.29 0.910807 39.3447 0.919922H39.4268C40.0648 0.938151 40.5889 1.08398 40.999 1.35742C41.4092 1.63086 41.7054 1.94531 41.8877 2.30078C42.07 2.64714 42.1611 2.99805 42.1611 3.35352C42.1611 3.7181 42.07 4.07812 41.8877 4.43359C41.7145 4.77995 41.4183 5.08984 40.999 5.36328C40.5889 5.63672 40.0648 5.78255 39.4268 5.80078H37.0205C37.0934 6.25651 37.2438 6.59375 37.4717 6.8125C37.6904 7.03125 37.9684 7.14062 38.3057 7.14062H41.2588C41.514 7.14974 41.7236 7.24544 41.8877 7.42773C42.0609 7.61003 42.1475 7.82878 42.1475 8.08398C42.1383 8.33008 42.0472 8.53971 41.874 8.71289C41.71 8.87695 41.5049 8.96354 41.2588 8.97266H38.0596C37.3851 8.98177 36.7744 8.71745 36.2275 8.17969C35.6807 7.64193 35.348 7.00391 35.2295 6.26562C35.0654 5.44531 34.9834 4.98503 34.9834 4.88477C34.9834 4.62956 35.07 4.41536 35.2432 4.24219C35.4255 4.0599 35.6442 3.96875 35.8994 3.96875H39.5088C39.682 3.95964 39.8232 3.92318 39.9326 3.85938C40.0511 3.78646 40.1377 3.70898 40.1924 3.62695C40.2471 3.53581 40.2744 3.44466 40.2744 3.35352C40.2744 3.26237 40.2471 3.17578 40.1924 3.09375C40.1377 3.0026 40.0511 2.92513 39.9326 2.86133C39.8232 2.78841 39.682 2.7474 39.5088 2.73828H35.8037H34.71C34.473 2.7474 34.3545 2.86589 34.3545 3.09375V8.27539ZM46.7549 2.73828C46.4085 2.75651 46.1169 2.88867 45.8799 3.13477C45.652 3.38086 45.488 3.66341 45.3877 3.98242C45.2874 4.29232 45.2373 4.61133 45.2373 4.93945C45.2373 5.26758 45.2829 5.59115 45.374 5.91016C45.4743 6.22917 45.6429 6.51172 45.8799 6.75781C46.1169 6.99479 46.4085 7.1224 46.7549 7.14062H51.2666C51.8408 7.19531 52.1553 7.50977 52.21 8.08398C52.2008 8.33919 52.1051 8.55339 51.9229 8.72656C51.7406 8.89062 51.5218 8.97266 51.2666 8.97266H46.9053H46.2764C45.6383 8.9362 45.1143 8.69466 44.7041 8.24805C44.2939 7.79232 43.9977 7.27734 43.8154 6.70312C43.6423 6.12891 43.5557 5.54102 43.5557 4.93945C43.5557 4.49284 43.6058 4.05078 43.7061 3.61328C43.8063 3.17578 43.9613 2.76107 44.1709 2.36914C44.3896 1.9681 44.6768 1.6263 45.0322 1.34375C45.3968 1.0612 45.8115 0.915365 46.2764 0.90625H46.5361H51.2666C51.8408 0.960938 52.1553 1.27539 52.21 1.84961C52.21 2.10482 52.1143 2.31901 51.9229 2.49219C51.7406 2.65625 51.5218 2.73828 51.2666 2.73828H46.7549ZM55.3135 8.27539C55.2588 8.82227 54.958 9.11849 54.4111 9.16406C54.1559 9.16406 53.9326 9.08203 53.7412 8.91797C53.5589 8.74479 53.4678 8.5306 53.4678 8.27539V1.79492C53.4769 1.53971 53.5726 1.33008 53.7549 1.16602C53.9372 0.992839 54.1559 0.90625 54.4111 0.90625H55.0811H56.7627H60.1396C60.1943 0.90625 60.249 0.910807 60.3037 0.919922H60.3857C61.0238 0.938151 61.5479 1.08398 61.958 1.35742C62.3682 1.63086 62.6644 1.94531 62.8467 2.30078C63.029 2.64714 63.1201 2.99805 63.1201 3.35352C63.1201 3.7181 63.029 4.07812 62.8467 4.43359C62.6735 4.77995 62.3773 5.08984 61.958 5.36328C61.5479 5.63672 61.0238 5.78255 60.3857 5.80078H57.9795C58.0524 6.25651 58.2028 6.59375 58.4307 6.8125C58.6494 7.03125 58.9274 7.14062 59.2646 7.14062H62.2178C62.473 7.14974 62.6826 7.24544 62.8467 7.42773C63.0199 7.61003 63.1064 7.82878 63.1064 8.08398C63.0973 8.33008 63.0062 8.53971 62.833 8.71289C62.6689 8.87695 62.4639 8.96354 62.2178 8.97266H59.0186C58.3441 8.98177 57.7334 8.71745 57.1865 8.17969C56.6396 7.64193 56.307 7.00391 56.1885 6.26562C56.0244 5.44531 55.9424 4.98503 55.9424 4.88477C55.9424 4.62956 56.029 4.41536 56.2021 4.24219C56.3844 4.0599 56.6032 3.96875 56.8584 3.96875H60.4678C60.641 3.95964 60.7822 3.92318 60.8916 3.85938C61.0101 3.78646 61.0967 3.70898 61.1514 3.62695C61.2061 3.53581 61.2334 3.44466 61.2334 3.35352C61.2334 3.26237 61.2061 3.17578 61.1514 3.09375C61.0967 3.0026 61.0101 2.92513 60.8916 2.86133C60.7822 2.78841 60.641 2.7474 60.4678 2.73828H56.7627H55.6689C55.432 2.7474 55.3135 2.86589 55.3135 3.09375V8.27539ZM67.6729 6.85352C67.6729 6.59831 67.7594 6.38411 67.9326 6.21094C68.1149 6.02865 68.3337 5.9375 68.5889 5.9375H70.6807L70.3252 4.92578C70.1794 4.55208 70.0335 4.20117 69.8877 3.87305C69.751 3.53581 69.5915 3.23047 69.4092 2.95703C69.2451 2.68359 69.0583 2.53776 68.8486 2.51953C68.6299 2.53776 68.4339 2.68359 68.2607 2.95703C68.0876 3.23047 67.9281 3.53581 67.7822 3.87305C67.6455 4.20117 67.5042 4.55208 67.3584 4.92578L66.0596 8.48047C65.9684 8.67188 65.8499 8.83138 65.7041 8.95898C65.5674 9.07747 65.3577 9.13672 65.0752 9.13672C64.8109 9.13672 64.5921 9.04557 64.4189 8.86328C64.2549 8.68099 64.182 8.46224 64.2002 8.20703C64.2093 8.08854 64.2367 7.97917 64.2822 7.87891L65.7861 3.99609C66.2054 2.97526 66.6247 2.15039 67.0439 1.52148C67.4541 0.901693 68.0557 0.58724 68.8486 0.578125C69.6325 0.58724 70.2295 0.901693 70.6396 1.52148C71.0589 2.13216 71.4782 2.95703 71.8975 3.99609L73.4014 7.87891C73.4469 7.97917 73.4743 8.08854 73.4834 8.20703C73.5016 8.46224 73.4242 8.68099 73.251 8.86328C73.0869 9.04557 72.8727 9.13672 72.6084 9.13672C72.3076 9.13672 72.0843 9.07747 71.9385 8.95898C71.8018 8.83138 71.6878 8.67188 71.5967 8.48047L71.3369 7.76953H68.5889C68.3337 7.76953 68.1195 7.67839 67.9463 7.49609C67.764 7.32292 67.6729 7.10872 67.6729 6.85352ZM75.7939 9.13672C75.5479 9.1276 75.3382 9.04102 75.165 8.87695C74.9919 8.70378 74.9007 8.49414 74.8916 8.24805V4.84375C74.9007 4.19661 74.9919 3.58594 75.165 3.01172C75.3473 2.4375 75.6436 1.95443 76.0537 1.5625C76.473 1.16146 77.0016 0.942708 77.6396 0.90625H82.917C83.1631 0.915365 83.3682 1.00651 83.5322 1.17969C83.7054 1.34375 83.7965 1.54883 83.8057 1.79492C83.8057 2.05013 83.7191 2.26888 83.5459 2.45117C83.3818 2.63346 83.1722 2.72917 82.917 2.73828H78.1045C77.7581 2.75651 77.471 2.88867 77.2432 3.13477C77.0153 3.38086 76.8695 3.66341 76.8057 3.98242C76.751 4.29232 76.7282 4.63411 76.7373 5.00781V8.24805C76.7282 8.50326 76.6325 8.71745 76.4502 8.89062C76.2679 9.05469 76.0492 9.13672 75.7939 9.13672ZM77.3799 5.54102C77.3799 5.28581 77.471 5.07161 77.6533 4.89844C77.8265 4.71615 78.0407 4.625 78.2959 4.625H82.917C83.1722 4.625 83.3864 4.71615 83.5596 4.89844C83.7419 5.07161 83.833 5.28581 83.833 5.54102C83.833 5.79622 83.7464 6.01497 83.5732 6.19727C83.391 6.37044 83.1722 6.45703 82.917 6.45703H78.2959C78.0407 6.45703 77.8219 6.37044 77.6396 6.19727C77.4665 6.01497 77.3799 5.79622 77.3799 5.54102ZM84.8174 1.82227C84.8174 1.56706 84.904 1.35286 85.0771 1.17969C85.2594 0.997396 85.4782 0.90625 85.7334 0.90625H93.6904C93.9456 0.90625 94.1644 0.992839 94.3467 1.16602C94.5199 1.34831 94.6064 1.56706 94.6064 1.82227C94.6064 2.07747 94.5153 2.29622 94.333 2.47852C94.1598 2.65169 93.9456 2.73828 93.6904 2.73828H90.6416V8.27539C90.5869 8.82227 90.2861 9.11849 89.7393 9.16406C89.484 9.16406 89.2607 9.08203 89.0693 8.91797C88.887 8.74479 88.7959 8.5306 88.7959 8.27539V2.73828H85.7334C85.4782 2.73828 85.264 2.64714 85.0908 2.46484C84.9085 2.29167 84.8174 2.07747 84.8174 1.82227ZM2.40332 22.248C2.34863 22.7949 2.04785 23.0911 1.50098 23.1367C1.24577 23.1367 1.02246 23.0547 0.831055 22.8906C0.648763 22.7174 0.557617 22.5033 0.557617 22.248V15.7949C0.566732 15.5397 0.662435 15.3301 0.844727 15.166C1.02702 14.9928 1.24577 14.9062 1.50098 14.9062H7.24316C8.04525 14.9336 8.65137 15.1113 9.06152 15.4395C9.47168 15.7585 9.7679 16.123 9.9502 16.5332C10.1325 16.9434 10.2236 17.3581 10.2236 17.7773C10.2236 18.2148 10.1325 18.6387 9.9502 19.0488C9.77702 19.459 9.48079 19.8281 9.06152 20.1562C8.65137 20.4753 8.12728 20.6302 7.48926 20.6211H4.04395C3.78874 20.6211 3.57454 20.5299 3.40137 20.3477C3.21908 20.1745 3.12793 19.9603 3.12793 19.7051C3.12793 19.4499 3.21452 19.2357 3.3877 19.0625C3.56999 18.8802 3.78874 18.7891 4.04395 18.7891H7.57129C7.74447 18.7891 7.88574 18.7344 7.99512 18.625C8.11361 18.5065 8.2002 18.3743 8.25488 18.2285C8.30957 18.0736 8.33691 17.9186 8.33691 17.7637C8.33691 17.6178 8.30957 17.472 8.25488 17.3262C8.2002 17.1712 8.11361 17.0391 7.99512 16.9297C7.88574 16.8112 7.74447 16.7474 7.57129 16.7383H2.75879C2.52181 16.7474 2.40332 16.8659 2.40332 17.0938V22.248ZM13.5186 22.2754C13.4639 22.8223 13.1631 23.1185 12.6162 23.1641C12.361 23.1641 12.1377 23.082 11.9463 22.918C11.764 22.7448 11.6729 22.5306 11.6729 22.2754V15.7949C11.682 15.5397 11.7777 15.3301 11.96 15.166C12.1423 14.9928 12.361 14.9062 12.6162 14.9062H13.2861H14.9678H18.3447C18.3994 14.9062 18.4541 14.9108 18.5088 14.9199H18.5908C19.2288 14.9382 19.7529 15.084 20.1631 15.3574C20.5732 15.6309 20.8695 15.9453 21.0518 16.3008C21.234 16.6471 21.3252 16.998 21.3252 17.3535C21.3252 17.7181 21.234 18.0781 21.0518 18.4336C20.8786 18.7799 20.5824 19.0898 20.1631 19.3633C19.7529 19.6367 19.2288 19.7826 18.5908 19.8008H16.1846C16.2575 20.2565 16.4079 20.5938 16.6357 20.8125C16.8545 21.0312 17.1325 21.1406 17.4697 21.1406H20.4229C20.6781 21.1497 20.8877 21.2454 21.0518 21.4277C21.2249 21.61 21.3115 21.8288 21.3115 22.084C21.3024 22.3301 21.2113 22.5397 21.0381 22.7129C20.874 22.877 20.6689 22.9635 20.4229 22.9727H17.2236C16.5492 22.9818 15.9385 22.7174 15.3916 22.1797C14.8447 21.6419 14.512 21.0039 14.3936 20.2656C14.2295 19.4453 14.1475 18.985 14.1475 18.8848C14.1475 18.6296 14.234 18.4154 14.4072 18.2422C14.5895 18.0599 14.8083 17.9688 15.0635 17.9688H18.6729C18.846 17.9596 18.9873 17.9232 19.0967 17.8594C19.2152 17.7865 19.3018 17.709 19.3564 17.627C19.4111 17.5358 19.4385 17.4447 19.4385 17.3535C19.4385 17.2624 19.4111 17.1758 19.3564 17.0938C19.3018 17.0026 19.2152 16.9251 19.0967 16.8613C18.9873 16.7884 18.846 16.7474 18.6729 16.7383H14.9678H13.874C13.637 16.7474 13.5186 16.8659 13.5186 17.0938V22.2754ZM30.1436 14.9062C30.6084 14.9154 31.0231 15.0612 31.3877 15.3438C31.7523 15.6263 32.0439 15.9635 32.2627 16.3555C32.4906 16.7474 32.6592 17.1621 32.7686 17.5996C32.8779 18.0371 32.9326 18.4837 32.9326 18.9395C32.9326 19.541 32.8369 20.1335 32.6455 20.7168C32.4632 21.291 32.1579 21.8014 31.7295 22.248C31.3102 22.6947 30.7816 22.9362 30.1436 22.9727H25.3721C24.734 22.9453 24.2008 22.7083 23.7725 22.2617C23.3441 21.8151 23.0387 21.3001 22.8564 20.7168C22.6833 20.1335 22.5967 19.541 22.5967 18.9395C22.5967 18.3379 22.6878 17.75 22.8701 17.1758C23.0524 16.5924 23.3532 16.0775 23.7725 15.6309C24.2008 15.1751 24.734 14.9336 25.3721 14.9062H25.6318H29.8838H30.1436ZM29.6787 21.1406C30.0251 21.1224 30.3122 20.9948 30.54 20.7578C30.777 20.5117 30.9456 20.2292 31.0459 19.9102C31.1462 19.5911 31.1963 19.2676 31.1963 18.9395C31.1963 18.6113 31.1416 18.2923 31.0322 17.9824C30.932 17.6634 30.7679 17.3809 30.54 17.1348C30.3122 16.8887 30.0251 16.7565 29.6787 16.7383H25.7959C25.4495 16.7565 25.1624 16.8887 24.9346 17.1348C24.7067 17.3809 24.5381 17.6634 24.4287 17.9824C24.3285 18.2923 24.2783 18.6113 24.2783 18.9395C24.2783 19.2676 24.3285 19.5911 24.4287 19.9102C24.529 20.2292 24.693 20.5117 24.9209 20.7578C25.1579 20.9948 25.4495 21.1224 25.7959 21.1406H29.6787ZM42.3389 14.6875C42.5941 14.6875 42.8128 14.7741 42.9951 14.9473C43.1774 15.1113 43.2731 15.321 43.2822 15.5762V18.8711C43.2731 19.2448 43.2959 19.5911 43.3506 19.9102C43.4144 20.2201 43.5602 20.498 43.7881 20.7441C44.016 20.9902 44.3031 21.1224 44.6494 21.1406H49.0244C49.2796 21.1497 49.4893 21.2454 49.6533 21.4277C49.8265 21.61 49.9131 21.8288 49.9131 22.084C49.904 22.3301 49.8128 22.5397 49.6396 22.7129C49.4756 22.877 49.2705 22.9635 49.0244 22.9727H44.1846C43.5465 22.9362 43.0179 22.722 42.5986 22.3301C42.1885 21.929 41.8923 21.4414 41.71 20.8672C41.5368 20.293 41.4456 19.6823 41.4365 19.0352V15.5762C41.4456 15.3301 41.5368 15.125 41.71 14.9609C41.8831 14.7878 42.0928 14.6966 42.3389 14.6875ZM53.7549 14.9062H54.3838H59.0322C59.2874 14.9154 59.4971 15.0111 59.6611 15.1934C59.8343 15.3757 59.9209 15.5944 59.9209 15.8496C59.8753 16.3965 59.5791 16.6927 59.0322 16.7383H54.2197C53.8734 16.7565 53.5863 16.8887 53.3584 17.1348C53.1305 17.3809 52.9619 17.6634 52.8525 17.9824C52.7523 18.2923 52.7021 18.6113 52.7021 18.9395C52.7021 19.2676 52.7523 19.5911 52.8525 19.9102C52.9619 20.2201 53.1305 20.498 53.3584 20.7441C53.5863 20.9902 53.8734 21.1224 54.2197 21.1406H59.0322C59.2874 21.1497 59.4971 21.2454 59.6611 21.4277C59.8343 21.61 59.9209 21.8288 59.9209 22.084C59.9118 22.3301 59.8206 22.5397 59.6475 22.7129C59.4834 22.877 59.2783 22.9635 59.0322 22.9727H54.0146H53.7549C53.1169 22.9362 52.5882 22.6947 52.1689 22.248C51.7588 21.7923 51.4626 21.2773 51.2803 20.7031C51.1071 20.1289 51.0205 19.541 51.0205 18.9395C51.0205 18.3379 51.1117 17.75 51.2939 17.1758C51.4762 16.6016 51.7725 16.0911 52.1826 15.6445C52.5928 15.1888 53.1169 14.9427 53.7549 14.9062ZM59.8936 18.8848C59.8936 19.14 59.8024 19.3542 59.6201 19.5273C59.4469 19.7096 59.2327 19.8008 58.9775 19.8008H54.8486C54.5934 19.8008 54.3747 19.7142 54.1924 19.541C54.0192 19.3587 53.9326 19.14 53.9326 18.8848C53.9326 18.6296 54.0192 18.4108 54.1924 18.2285C54.3747 18.0553 54.5934 17.9688 54.8486 17.9688H58.9775C59.2327 17.9688 59.4469 18.0599 59.6201 18.2422C59.8024 18.4154 59.8936 18.6296 59.8936 18.8848ZM64.3643 20.8535C64.3643 20.5983 64.4508 20.3841 64.624 20.2109C64.8063 20.0286 65.0251 19.9375 65.2803 19.9375H67.3721L67.0166 18.9258C66.8708 18.5521 66.7249 18.2012 66.5791 17.873C66.4424 17.5358 66.2829 17.2305 66.1006 16.957C65.9365 16.6836 65.7497 16.5378 65.54 16.5195C65.3213 16.5378 65.1253 16.6836 64.9521 16.957C64.779 17.2305 64.6195 17.5358 64.4736 17.873C64.3369 18.2012 64.1956 18.5521 64.0498 18.9258L62.751 22.4805C62.6598 22.6719 62.5413 22.8314 62.3955 22.959C62.2588 23.0775 62.0492 23.1367 61.7666 23.1367C61.5023 23.1367 61.2835 23.0456 61.1104 22.8633C60.9463 22.681 60.8734 22.4622 60.8916 22.207C60.9007 22.0885 60.9281 21.9792 60.9736 21.8789L62.4775 17.9961C62.8968 16.9753 63.3161 16.1504 63.7354 15.5215C64.1455 14.9017 64.7471 14.5872 65.54 14.5781C66.3239 14.5872 66.9209 14.9017 67.3311 15.5215C67.7503 16.1322 68.1696 16.957 68.5889 17.9961L70.0928 21.8789C70.1383 21.9792 70.1657 22.0885 70.1748 22.207C70.193 22.4622 70.1156 22.681 69.9424 22.8633C69.7783 23.0456 69.5641 23.1367 69.2998 23.1367C68.999 23.1367 68.7757 23.0775 68.6299 22.959C68.4932 22.8314 68.3792 22.6719 68.2881 22.4805L68.0283 21.7695H65.2803C65.0251 21.7695 64.8109 21.6784 64.6377 21.4961C64.4554 21.3229 64.3643 21.1087 64.3643 20.8535ZM74.1396 14.9062H79.9092C80.1644 14.9154 80.374 15.0111 80.5381 15.1934C80.7113 15.3757 80.7979 15.5944 80.7979 15.8496C80.7523 16.3965 80.4561 16.6927 79.9092 16.7383H74.6045C74.2581 16.7565 73.971 16.8887 73.7432 17.1348C73.5153 17.3809 73.3467 17.6634 73.2373 17.9824C73.137 18.2923 73.0869 18.6113 73.0869 18.9395C73.0869 19.2676 73.137 19.5911 73.2373 19.9102C73.3467 20.2201 73.5153 20.498 73.7432 20.7441C73.971 20.9902 74.2581 21.1224 74.6045 21.1406H78.7607C78.9248 21.1315 79.0114 21.0404 79.0205 20.8672V20.0742C79.0114 19.8919 78.9248 19.8008 78.7607 19.8008H75.2607C75.0055 19.8008 74.7868 19.7142 74.6045 19.541C74.4313 19.3587 74.3447 19.14 74.3447 18.8848C74.3447 18.6296 74.4313 18.4108 74.6045 18.2285C74.7868 18.0553 75.0055 17.9688 75.2607 17.9688H79.9365C80.1917 17.9688 80.4105 18.0553 80.5928 18.2285C80.7568 18.4017 80.8434 18.6113 80.8525 18.8574V18.8848V22.084C80.8434 22.3301 80.7568 22.5352 80.5928 22.6992C80.4196 22.8724 80.21 22.9635 79.9639 22.9727H74.1396C73.5016 22.9362 72.973 22.6947 72.5537 22.248C72.1436 21.7923 71.8473 21.2773 71.665 20.7031C71.4919 20.1289 71.4053 19.541 71.4053 18.9395C71.4053 18.3379 71.4964 17.75 71.6787 17.1758C71.861 16.6016 72.1572 16.0911 72.5674 15.6445C72.9775 15.1888 73.5016 14.9427 74.1396 14.9062ZM86.9092 23.2871C86.4352 23.2871 85.9658 23.2324 85.501 23.123C85.0452 23.0137 84.6077 22.8542 84.1885 22.6445C83.7692 22.4258 83.4001 22.1387 83.0811 21.7832C82.762 21.4277 82.5889 21.0039 82.5615 20.5117V19.9375V15.5762C82.5615 15.321 82.6527 15.1113 82.835 14.9473C83.0264 14.7741 83.2497 14.6875 83.5049 14.6875C84.0518 14.7331 84.348 15.0293 84.3936 15.5762V20.0879C84.4118 20.3704 84.5166 20.6074 84.708 20.7988C84.9085 20.9811 85.1273 21.127 85.3643 21.2363C85.6104 21.3457 85.861 21.4277 86.1162 21.4824C86.3805 21.5371 86.6449 21.5645 86.9092 21.5645C87.1735 21.5645 87.4333 21.5371 87.6885 21.4824C87.9528 21.4277 88.2035 21.3457 88.4404 21.2363C88.6865 21.127 88.9053 20.9811 89.0967 20.7988C89.2972 20.6074 89.4066 20.3704 89.4248 20.0879V15.5762C89.4248 15.321 89.516 15.1113 89.6982 14.9473C89.8896 14.7741 90.113 14.6875 90.3682 14.6875C90.915 14.7331 91.2158 15.0293 91.2705 15.5762V19.9375V20.5117C91.2432 21.0039 91.0654 21.4277 90.7373 21.7832C90.4183 22.1387 90.0492 22.4258 89.6299 22.6445C89.2106 22.8542 88.7686 23.0137 88.3037 23.123C87.848 23.2324 87.3831 23.2871 86.9092 23.2871ZM95.6318 14.9062H96.2607H100.909C101.164 14.9154 101.374 15.0111 101.538 15.1934C101.711 15.3757 101.798 15.5944 101.798 15.8496C101.752 16.3965 101.456 16.6927 100.909 16.7383H96.0967C95.7503 16.7565 95.4632 16.8887 95.2354 17.1348C95.0075 17.3809 94.8389 17.6634 94.7295 17.9824C94.6292 18.2923 94.5791 18.6113 94.5791 18.9395C94.5791 19.2676 94.6292 19.5911 94.7295 19.9102C94.8389 20.2201 95.0075 20.498 95.2354 20.7441C95.4632 20.9902 95.7503 21.1224 96.0967 21.1406H100.909C101.164 21.1497 101.374 21.2454 101.538 21.4277C101.711 21.61 101.798 21.8288 101.798 22.084C101.789 22.3301 101.698 22.5397 101.524 22.7129C101.36 22.877 101.155 22.9635 100.909 22.9727H95.8916H95.6318C94.9938 22.9362 94.4652 22.6947 94.0459 22.248C93.6357 21.7923 93.3395 21.2773 93.1572 20.7031C92.984 20.1289 92.8975 19.541 92.8975 18.9395C92.8975 18.3379 92.9886 17.75 93.1709 17.1758C93.3532 16.6016 93.6494 16.0911 94.0596 15.6445C94.4697 15.1888 94.9938 14.9427 95.6318 14.9062ZM101.771 18.8848C101.771 19.14 101.679 19.3542 101.497 19.5273C101.324 19.7096 101.11 19.8008 100.854 19.8008H96.7256C96.4704 19.8008 96.2516 19.7142 96.0693 19.541C95.8962 19.3587 95.8096 19.14 95.8096 18.8848C95.8096 18.6296 95.8962 18.4108 96.0693 18.2285C96.2516 18.0553 96.4704 17.9688 96.7256 17.9688H100.854C101.11 17.9688 101.324 18.0599 101.497 18.2422C101.679 18.4154 101.771 18.6296 101.771 18.8848Z" fill="white"/>
</svg>
